<?xml version="1.0" encoding="utf-8" ?>
<svg baseProfile="full" height="200mm" version="1.1" viewBox="0,0,200,200" width="200mm" xmlns="http://www.w3.org/2000/svg" xmlns:ev="http://www.w3.org/2001/xml-events" xmlns:xlink="http://www.w3.org/1999/xlink"><defs /><rect fill="#1a1a1a" height="200" width="200" x="0" y="0" /><text alignment-baseline="middle" fill="#e1ed5e" style="dominant-baseline: central; font-size:9.0px; font-family:Arial;" text-anchor="middle" x="100.0" y="100.0">2025</text><line stroke="#e1ed5e" stroke-width="0.3" x1="100.0" x2="100.0" y1="15.0" y2="10.0" /><path d="M 100.0 14.0 a86.0,86.0 0 0,1 42.46469731375804,11.215312516191453" fill="none" id="id1" stroke="none" /><text fill="#e1ed5e" style="font-size:6.75px; font-family:Arial;" text-anchor="middle"><textPath startOffset="22.20632615414155" xlink:href="#id1">January</textPath></text><line stroke="#e1ed5e" stroke-width="0.3" x1="143.23703022742887" x2="145.7803849466894" y1="26.81831364943548" y2="22.513508569990506" /><path d="M 143.74570117128098 25.957352633546492 a86.0,86.0 0 0,1 28.547481713284135,27.462654790039103" fill="none" id="id2" stroke="none" /><text fill="#e1ed5e" style="font-size:6.75px; font-family:Arial;" text-anchor="middle"><textPath startOffset="19.985693538727396" xlink:href="#id2">February</textPath></text><path d="M 112.19680574252982 82.90503203632743 l 14.949754876867102 -20.953484549946797 a46.739923963820694,46.739923963820694 0 0,0 0.65091950840415,0.47292070516395507 l -15.30821970162504 20.693044609966165" fill="red" stroke="none" /><path d="M 115.19652480421416 85.50635884689758 l 18.2889594499778 -17.443041665559733 a46.27341964019482,46.27341964019482 0 0,0 0.5447762599633306,0.5811293307026214 l -18.586503031911594 17.125642917979057" fill="red" stroke="none" /><path d="M 115.4437574822437 85.77008943001954 l 19.425770938025966 -17.898946128806685 a47.41463323725276,47.41463323725276 0 0,0 0.5478791563275079,0.6049818485027846 l -19.73099373496951 17.56191149303435" fill="red" stroke="none" /><line stroke="#e1ed5e" stroke-width="0.3" x1="172.23445277983987" x2="176.4835382374775" y1="55.19839476539836" y2="52.563006222186495" /><path d="M 173.08426987136738 54.67131705675599 a86.0,86.0 0 0,1 12.851231095245387,41.99856678651699" fill="none" id="id3" stroke="none" /><text fill="#e1ed5e" style="font-size:6.75px; font-family:Arial;" text-anchor="middle"><textPath startOffset="22.20632615414155" xlink:href="#id3">March</textPath></text><path d="M 119.34039704204932 91.81776055985345 l 23.810256720215033 -10.073279322683149 a46.85341914322632,46.85341914322632 0 0,0 0.3078455112855387,0.7454723236648535 l -23.98012391838677 9.661932428564993" fill="red" stroke="none" /><path d="M 119.47837535516314 92.15188598940014 l 23.271537755978496 -9.376433002277395 a46.08947917702018,46.08947917702018 0 0,0 0.2901584014188155,0.7384214825211174 l -23.42948970727901 8.974462514860493" fill="red" stroke="none" /><path d="M 119.61058180528143 92.48833698450437 l 24.114378702590678 -9.236803295306744 a46.822892853593075,46.822892853593075 0 0,0 0.2818189909416289,0.7551347841365025 l -24.26980228203393 8.820345374140908" fill="red" stroke="none" /><line stroke="#e1ed5e" stroke-width="0.3" x1="184.98032266829074" x2="189.97916517819016" y1="98.17113171792111" y2="98.06355123074" /><path d="M 185.9800911702706 98.14961562048488 a86.0,86.0 0 0,1 -9.607161424134198,41.387399972396054" fill="none" id="id4" stroke="none" /><text fill="#e1ed5e" style="font-size:6.75px; font-family:Arial;" text-anchor="middle"><textPath startOffset="21.466115282336823" xlink:href="#id4">April</textPath></text><path d="M 120.9904718944345 100.63252640178507 l 17.289599880545232 0.5210044088453536 a38.29744806679257,38.29744806679257 0 0,0 -0.025527742389376544,0.6587576010964257 l -17.278070005304652 -0.8185392569557854" fill="red" stroke="none" /><path d="M 118.81262510543309 109.33194174019688 l 50.340273639645126 24.971129662019713 a77.1934201371633,77.1934201371633 0 0,0 -0.6007167334553635,1.1852711051187015 l -49.90297823640349 -25.83395497884111" fill="red" stroke="none" /><path d="M 118.64920377521936 109.65438752849418 l 43.55388915668278 22.547135489528447 a70.0440065599841,70.0440065599841 0 0,0 -0.5635123439137357,1.0659529895132964 l -43.15932430454415 -23.29350349412788" fill="red" stroke="none" /><line stroke="#e1ed5e" stroke-width="0.3" x1="174.80103733775053" x2="179.2010983576182" y1="140.37084112569926" y2="142.7455964860345" /><path d="M 175.68104954172406 140.8457921977663 a86.0,86.0 0 0,1 -30.038265399797805,32.042727171017184" fill="none" id="id5" stroke="none" /><text fill="#e1ed5e" style="font-size:6.75px; font-family:Arial;" text-anchor="middle"><textPath startOffset="22.206326154141568" xlink:href="#id5">May</textPath></text><path d="M 118.48025628344425 109.97397251340804 l 52.24470027532102 28.196968511963533 a80.36815425901997,80.36815425901997 0 0,0 -0.667528668172058,1.2117584295408919 l -51.751595197697455 -29.09209745990223" fill="red" stroke="none" /><path d="M 118.30583269289576 110.29060199501025 l 47.53562237406898 26.72209337008133 a75.5316941655899,75.5316941655899 0 0,0 -0.6468678296623954,1.1278685856680133 l -47.068602548254205 -27.536381801607657" fill="red" stroke="none" /><path d="M 118.12598468904814 110.60418214915192 l 45.19177673075934 26.438388883023123 a73.35728307325316,73.35728307325316 0 0,0 -0.6470081777135814,1.0844229216888117 l -44.72998767734753 -27.212373898598038" fill="red" stroke="none" /><path d="M 117.94076556474637 110.91462005526583 l 44.961357753088095 27.3531324665506 a73.62810605307624,73.62810605307624 0 0,0 -0.6680360817803963,1.0770868711491302 l -44.48385703163974 -28.123015669065005" fill="red" stroke="none" /><path d="M 117.75023020441432 111.22182372390056 l 53.25069061324299 33.665471171701654 a84.0,84.0 0 0,0 -0.7831805464917987,1.2155136003141882 l -52.663305203374144 -34.5771063719373" fill="red" stroke="none" /><path d="M 117.55443506779139 111.5257021239791 l 42.839643734292295 28.127192408759345 a72.24816121657886,72.24816121657886 0 0,0 -0.6915074306818063,1.0337097839090301 l -42.349133198199766 -28.860439106874182" fill="red" stroke="none" /><path d="M 117.35343817320211 111.8261652097733 l 41.35757592061111 28.184704415991728 a71.04824321638009,71.04824321638009 0 0,0 -0.6974200192546905,1.0046855537793276 l -40.866294994194284 -28.892431231958078" fill="red" stroke="none" /><path d="M 117.14729908036423 112.12312394758627 l 42.23913560737719 29.86302822428296 a72.72953732233375,72.72953732233375 0 0,0 -0.7315213320785562,1.0160191495933546 l -41.718834482923036 -30.585680979327446" fill="red" stroke="none" /><path d="M 116.93607887273984 112.41649034213515 l 47.92404477460749 35.134959134947735 a80.42372776065997,80.42372776065997 0 0,0 -0.828129762791613,1.1094151482910646 l -47.31215374512078 -35.954687162748115" fill="red" stroke="none" /><path d="M 116.71984013943494 112.70617746262583 l 25.157659275501267 19.118465286331197 a52.597840671901395,52.597840671901395 0 0,0 -0.5540135136035619,0.7161371481057899 l -24.824838944679637 -19.54868042855024" fill="red" stroke="none" /><path d="M 116.498646956653 112.99209946851258 l 27.88420563074521 21.957823214649412 a56.49189941357717,56.49189941357717 0 0,0 -0.6081812653051761,0.7587996406127279 l -27.50210645338518 -22.434550688840392" fill="red" stroke="none" /><line stroke="#e1ed5e" stroke-width="0.3" x1="143.8653032363475" x2="146.44561519142675" y1="172.8068346515853" y2="177.08958963109032" /><path d="M 144.38136562736335 173.6633856474863 a86.0,86.0 0 0,1 -40.68145358897372,12.25698825130547" fill="none" id="id6" stroke="none" /><text fill="#e1ed5e" style="font-size:6.75px; font-family:Arial;" text-anchor="middle"><textPath startOffset="21.466115282336833" xlink:href="#id6">June</textPath></text><line stroke="#e1ed5e" stroke-width="0.3" x1="102.19456741930631" x2="102.32365962044197" y1="184.97166512339345" y2="189.96999836594603" /><path d="M 102.22038585953345 185.97133177190398 a86.0,86.0 0 0,1 -42.740103519485714,-10.115201625700543" fill="none" id="id7" stroke="none" /><text fill="#e1ed5e" style="font-size:6.75px; font-family:Arial;" text-anchor="middle"><textPath startOffset="22.20632615414155" xlink:href="#id7">July</textPath></text><line stroke="#e1ed5e" stroke-width="0.3" x1="58.666819895761336" x2="56.23545636021788" y1="174.27360380694188" y2="178.64263932499728" /><path d="M 58.180547188652646 175.14741091055294 a86.0,86.0 0 0,1 -31.652253787137756,-30.449443065178592" fill="none" id="id8" stroke="none" /><text fill="#e1ed5e" style="font-size:6.75px; font-family:Arial;" text-anchor="middle"><textPath startOffset="22.20632615414155" xlink:href="#id8">August</textPath></text><line stroke="#e1ed5e" stroke-width="0.3" x1="26.63291911575756" x2="22.317208475507996" y1="142.92168965132927" y2="145.44649492493687" /><path d="M 25.769776987707644 143.4266507060508 a86.0,86.0 0 0,1 -11.730757126820373,-40.83630448921669" fill="none" id="id9" stroke="none" /><text fill="#e1ed5e" style="font-size:6.75px; font-family:Arial;" text-anchor="middle"><textPath startOffset="21.46611528233685" xlink:href="#id9">September</textPath></text><line stroke="#e1ed5e" stroke-width="0.3" x1="15.007084014347285" x2="10.007500721073583" y1="101.09737516637583" y2="101.16192664675087" /><path d="M 14.007167355692545 101.11028546245083 a86.0,86.0 0 0,1 10.666146001902534,-42.60595125391555" fill="none" id="id10" stroke="none" /><text fill="#e1ed5e" style="font-size:6.75px; font-family:Arial;" text-anchor="middle"><textPath startOffset="22.20632615414155" xlink:href="#id10">October</textPath></text><line stroke="#e1ed5e" stroke-width="0.3" x1="26.266209847984243" x2="21.928928074336255" y1="57.711370442889674" y2="55.22380399835377" /><path d="M 25.398753493254645 57.213857153982495 a86.0,86.0 0 0,1 29.58750427330803,-30.492523968695096" fill="none" id="id11" stroke="none" /><text fill="#e1ed5e" style="font-size:6.75px; font-family:Arial;" text-anchor="middle"><textPath startOffset="21.46611528233685" xlink:href="#id11">November</textPath></text><line stroke="#e1ed5e" stroke-width="0.3" x1="56.762969772571076" x2="54.21961505331055" y1="26.818313649435495" y2="22.513508569990535" /><path d="M 56.25429882871897 25.957352633546506 a86.0,86.0 0 0,1 42.265352541879196,-11.944610805530505" fill="none" id="id12" stroke="none" /><text fill="#e1ed5e" style="font-size:6.75px; font-family:Arial;" text-anchor="middle"><textPath startOffset="22.20632615414155" xlink:href="#id12">December</textPath></text></svg>